<svg width="128" height="128" viewBox="0 0 128 128" fill="none" xmlns="http://www.w3.org/2000/svg">
  <rect width="128" height="128" rx="24" fill="#8B5CF6"/>
  <path d="M64 32C45.2 32 30 47.2 30 66C30 84.8 45.2 100 64 100C82.8 100 98 84.8 98 66C98 47.2 82.8 32 64 32ZM64 92C49.6 92 38 80.4 38 66C38 51.6 49.6 40 64 40C78.4 40 90 51.6 90 66C90 80.4 78.4 92 64 92Z" fill="white"/>
  <path d="M64 48C54.4 48 46 56.4 46 66C46 75.6 54.4 84 64 84C73.6 84 82 75.6 82 66C82 56.4 73.6 48 64 48ZM64 76C58.8 76 54 71.2 54 66C54 60.8 58.8 56 64 56C69.2 56 74 60.8 74 66C74 71.2 69.2 76 64 76Z" fill="white"/>
</svg> 